<svg xmlns="http://www.w3.org/2000/svg" width="292.951" height="31.39" viewBox="0 0 292.951 31.39">
  <g id="Groupe_7584" data-name="Groupe 7584" transform="translate(-969.049 -4107.418)">
    <g id="American_Express_" data-name="American Express " transform="translate(969.049 4107.418)">
      <rect id="Rectangle_Copy_4" data-name="Rectangle Copy 4" width="44.142" height="31.39" rx="3" fill="#016fd0"/>
      <g id="American_Express_logo__2018_" data-name="American_Express_logo_(2018)" transform="translate(0.044 7.563)">
        <path id="path3082" d="M0,7V0H7.305l.784,1.037L8.9,0H35.414V6.519a3.033,3.033,0,0,1-1.5.483H19.237l-.884-1.1V7h-2.9V5.118a2.4,2.4,0,0,1-1.251.263h-.986V7H8.837L8.054,5.943,7.259,7Z" transform="translate(8.531 9.175)" fill="#fff"/>
        <path id="path3080" d="M0,3.9,1.647,0H4.5l.935,2.183V0H8.973l.557,1.578L10.069,0h15.9V.793A3.4,3.4,0,0,1,28.175,0l5.158.018.919,2.155V0h2.964l.816,1.238V0h2.991V7H38.031L37.25,5.76V7H32.9l-.438-1.1H31.287L30.856,7H27.9a2.9,2.9,0,0,1-1.937-.777V7H21.514L20.63,5.9V7H4.074L3.637,5.9H2.47L2.035,7H0Z" transform="translate(0 0)" fill="#fff"/>
        <path id="path3046" d="M1.446,5.243H0L2.222,0H3.906l2.22,5.242H4.648L4.24,4.193H1.856l-.41,1.05Zm1.6-4.023L2.315,3.055H3.771Z" transform="translate(0.009 0.863)" fill="#016fd0"/>
        <path id="path3048" d="M0,5.243V0L2.056.008l1.2,3.38L4.418,0H6.457V5.243H5.166V1.38L3.8,5.243H2.664L1.291,1.38V5.243Z" transform="translate(6.288 0.862)" fill="#016fd0"/>
        <path id="path3050" d="M0,5.243V0H4.214V1.173H1.305v.9H4.146v1.1H1.305V4.1H4.214V5.243Z" transform="translate(13.629 0.862)" fill="#016fd0"/>
        <path id="path3052" d="M1.292,5.244H0V0H2.874A1.686,1.686,0,0,1,4.68,1.7a1.6,1.6,0,0,1-1.416,1.61l1.7,1.93H3.384L1.835,3.38H1.292V5.243Zm0-4.071v1.1h1.5a.585.585,0,0,0,.593-.552.6.6,0,0,0-.612-.551Z" transform="translate(18.591 0.863)" fill="#016fd0"/>
        <path id="path3054" d="M1.319,5.243H0V0H1.319Z" transform="translate(23.798 0.862)" fill="#016fd0"/>
        <path id="path3056" d="M2.5,5.243H2.213C.836,5.243,0,4.142,0,2.643A2.386,2.386,0,0,1,2.566,0H3.993V1.242H2.514A1.254,1.254,0,0,0,1.308,2.656,1.274,1.274,0,0,0,2.7,4.1h.34Z" transform="translate(25.745 0.862)" fill="#016fd0"/>
        <path id="path3058" d="M1.446,5.243H0L2.222,0H3.906l2.22,5.242H4.648l-.408-1.05H1.856l-.41,1.05Zm1.6-4.023L2.315,3.055H3.77Z" transform="translate(28.832 0.863)" fill="#016fd0"/>
        <path id="path3060" d="M0,5.243V0H1.642l2.1,3.294V0H5.03V5.243H3.441l-2.15-3.38v3.38Z" transform="translate(35.108 0.862)" fill="#016fd0"/>
        <path id="path3062" d="M0,5.243V0H4.214V1.173H1.305v.9H4.146v1.1H1.305V4.1H4.214V5.243Z" transform="translate(9.414 10.037)" fill="#016fd0"/>
        <path id="path3064" d="M0,5.243V0H4.214V1.173H1.305v.9H4.133v1.1H1.305V4.1H4.214V5.243Z" transform="translate(30.065 10.037)" fill="#016fd0"/>
        <path id="path3066" d="M.049,5.243,2.1,2.654,0,0H1.627L2.878,1.641,4.134,0H5.7L3.624,2.621,5.68,5.243H4.053L2.838,3.628,1.653,5.243Z" transform="translate(13.743 10.037)" fill="#016fd0"/>
        <path id="path3068" d="M1.325,5.242H0V0H2.853A1.714,1.714,0,0,1,4.707,1.763,1.791,1.791,0,0,1,2.685,3.587H1.325V5.242Zm0-4.057V2.393H2.753a.6.6,0,0,0,.642-.6.588.588,0,0,0-.637-.6Z" transform="translate(19.576 10.039)" fill="#016fd0"/>
        <path id="path3072" d="M1.292,5.244H0V0H2.874A1.686,1.686,0,0,1,4.68,1.7a1.6,1.6,0,0,1-1.416,1.61l1.7,1.93H3.384L1.835,3.38H1.292V5.243Zm0-4.071v1.1h1.5a.585.585,0,0,0,.593-.552.6.6,0,0,0-.612-.551H1.292Z" transform="translate(24.844 10.037)" fill="#016fd0"/>
        <path id="path3074" d="M.164,5.243V4.1H2.749c.382,0,.548-.21.548-.44s-.165-.443-.548-.443H1.581A1.455,1.455,0,0,1,0,1.651C0,.811.518,0,2.026,0H4.541L4,1.18H1.823c-.416,0-.544.221-.544.433a.454.454,0,0,0,.476.457H2.978A1.427,1.427,0,0,1,4.6,3.574,1.561,1.561,0,0,1,2.916,5.243Z" transform="translate(34.713 10.037)" fill="#016fd0"/>
        <path id="path3076" d="M.164,5.243V4.1H2.749c.382,0,.548-.21.548-.44s-.165-.443-.548-.443H1.581A1.455,1.455,0,0,1,0,1.651C0,.811.518,0,2.026,0H4.541L4,1.18H1.823c-.416,0-.544.221-.544.433a.454.454,0,0,0,.476.457H2.978A1.427,1.427,0,0,1,4.6,3.574,1.561,1.561,0,0,1,2.916,5.243Z" transform="translate(39.453 10.037)" fill="#016fd0"/>
      </g>
    </g>
    <g id="Apple_Pay_" data-name="Apple Pay " transform="translate(1018.81 4107.418)">
      <g id="Rectangle_Copy_21" data-name="Rectangle Copy 21" fill="#fff" stroke="#fff" stroke-miterlimit="10" stroke-width="1">
        <rect width="44.142" height="31.39" rx="3" stroke="none"/>
        <rect x="0.5" y="0.5" width="43.142" height="30.39" rx="2.5" fill="none"/>
      </g>
      <g id="Apple_Pay_logo_Copy" data-name="Apple_Pay_logo Copy" transform="translate(10.035 10.918)">
        <path id="XMLID_34_" d="M19.556,10.168V9.261c.07.01.244.02.333.02.5,0,.786-.219.959-.786l.1-.335L19.024,2.654h1.189l1.341,4.468h.023l1.341-4.468h1.156l-2,5.782C21.62,9.761,21.1,10.2,19.988,10.2A3,3,0,0,1,19.556,10.168Zm-18.722-3C.152,6.146-.37,4.294.336,3.042A1.924,1.924,0,0,1,1.977,2.013c.518-.01.993.354,1.307.354s.87-.423,1.524-.383A1.844,1.844,0,0,1,6.266,2.8a1.871,1.871,0,0,0-.86,1.562A1.82,1.82,0,0,0,6.468,6.025a4.462,4.462,0,0,1-.545,1.16c-.334.5-.677,1-1.223,1.009-.527.01-.7-.325-1.307-.325s-.8.315-1.3.335H2.068C1.554,8.2,1.163,7.661.834,7.165Zm13.2-.6c0-.97.7-1.527,2.036-1.61l1.42-.087V4.453c0-.613-.386-.951-1.086-.951a1,1,0,0,0-1.077.771H14.3a1.925,1.925,0,0,1,2.134-1.693c1.306,0,2.15.7,2.15,1.8V8.14H17.529V7.233h-.023a1.872,1.872,0,0,1-1.679.965A1.627,1.627,0,0,1,14.03,6.568Zm2.192-.825c-.708.044-1.082.319-1.082.8s.389.762.992.762a1.247,1.247,0,0,0,1.354-1.213V5.661Zm-6.5,2.4H8.584V.577h2.751a2.343,2.343,0,0,1,2.412,2.484A2.365,2.365,0,0,1,11.3,5.554H9.723V8.14h0Zm0-3.571H11.03a1.394,1.394,0,0,0,1.557-1.5,1.389,1.389,0,0,0-1.552-1.5H9.723ZM3.214,1.892A1.765,1.765,0,0,1,3.637.626,1.751,1.751,0,0,1,4.813,0,1.878,1.878,0,0,1,4.4,1.315,1.5,1.5,0,0,1,3.3,1.9Q3.257,1.9,3.214,1.892Z" transform="translate(0)"/>
      </g>
    </g>
    <g id="Pay_Pal_" data-name="Pay Pal " transform="translate(1118.334 4107.418)">
      <g id="Rectangle_Copy_4-2" data-name="Rectangle Copy 4" fill="#fff" stroke="#fff" stroke-miterlimit="10" stroke-width="1">
        <rect width="44.142" height="31.39" rx="3" stroke="none"/>
        <rect x="0.5" y="0.5" width="43.142" height="30.39" rx="2.5" fill="none"/>
      </g>
      <path id="Fill_1" data-name="Fill 1" d="M2.971,0H7.535c1.285,0,2.81.043,3.83.96A3.188,3.188,0,0,1,12.321,3.6c-.28,3.556-2.364,5.547-5.16,5.547H4.91c-.383,0-.637.259-.745.961l-.628,4.077c-.041.265-.153.42-.358.439H.367c-.312,0-.423-.244-.341-.771L2.05.774A.813.813,0,0,1,2.971,0" transform="translate(16.052 8.189)" fill="#1b3d92"/>
      <path id="Fill_1-2" data-name="Fill 1" d="M2.562,0h4.56c2.448,0,3.37,1.264,3.227,3.125C10.114,6.192,8.3,7.888,5.886,7.888H4.669c-.33,0-.553.223-.643.828L3.5,12.232c-.034.228-.152.362-.328.379H.317c-.269,0-.365-.21-.294-.665L1.768.667A.7.7,0,0,1,2.562,0" transform="translate(19.396 12.283)" fill="#00a2d3"/>
      <path id="Page_1" data-name="Page 1" d="M0,5.814.8.667A.7.7,0,0,1,1.591,0H6.15A4.378,4.378,0,0,1,7.993.342C7.535,3.506,5.529,5.265,2.9,5.265H.651c-.3,0-.518.155-.651.55" transform="translate(20.065 12.283)" fill="#1b2e7f"/>
    </g>
    <g id="Mastercard_" data-name="Mastercard " transform="translate(1068.572 4107.418)">
      <g id="Rectangle_Copy_4-3" data-name="Rectangle Copy 4" fill="#fff" stroke="#fff" stroke-miterlimit="10" stroke-width="1">
        <rect width="44.142" height="31.39" rx="3" stroke="none"/>
        <rect x="0.5" y="0.5" width="43.142" height="30.39" rx="2.5" fill="none"/>
      </g>
      <g id="mc_symbol" transform="translate(8.695 6.824)">
        <g id="Group" opacity="0">
          <rect id="Rectangle" width="26.629" height="17.722" fill="#fff"/>
        </g>
        <rect id="Rectangle-2" data-name="Rectangle" width="7.025" height="11.545" transform="translate(9.803 3.088)" fill="#ff5f00"/>
        <path id="Path" d="M9.018,7.341A7.346,7.346,0,0,1,11.8,1.569a7.264,7.264,0,0,0-9.869.792,7.375,7.375,0,0,0,0,9.962,7.264,7.264,0,0,0,9.869.792A7.346,7.346,0,0,1,9.018,7.341Z" transform="translate(1.509 1.52)" fill="#eb001b"/>
        <path id="Shape" d="M.613.579V.141L.526.517H.466L.379.141V.579H.321V0H.4L.495.413.589,0h.08V.579ZM.1.579V.1H0V0H.265V.1H.154v.48Z" transform="translate(24.282 13.125)" fill="#f79e1b"/>
        <path id="Path-2" data-name="Path" d="M11.806,7.344a7.346,7.346,0,0,1-4.108,6.6A7.259,7.259,0,0,1,0,13.115,7.358,7.358,0,0,0,2.788,7.343,7.358,7.358,0,0,0,0,1.57,7.259,7.259,0,0,1,7.7.738a7.346,7.346,0,0,1,4.108,6.6Z" transform="translate(13.314 1.517)" fill="#f79e1b"/>
      </g>
    </g>
    <g id="Visa_" data-name="Visa " transform="translate(1168.096 4107.418)">
      <g id="Rectangle_Copy_4-4" data-name="Rectangle Copy 4" fill="#fff" stroke="#fff" stroke-miterlimit="10" stroke-width="1">
        <rect width="44.142" height="31.39" rx="3" stroke="none"/>
        <rect x="0.5" y="0.5" width="43.142" height="30.39" rx="2.5" fill="none"/>
      </g>
      <g id="Visa_Inc._logo" transform="translate(7.416 11.034)">
        <path id="polygon9" d="M2.367,9.1H0L1.481,0H3.848Z" transform="translate(10.297 0.165)" fill="#0742a6"/>
        <path id="path11" d="M7.1.387A5.867,5.867,0,0,0,4.978,0C2.64,0,.994,1.239.984,3.01.964,4.317,2.163,5.042,3.059,5.478c.916.445,1.227.736,1.227,1.133-.009.609-.74.89-1.422.89A4.737,4.737,0,0,1,.643,7.017L.331,6.872,0,8.914A7.246,7.246,0,0,0,2.64,9.4c2.484,0,4.1-1.22,4.12-3.107.009-1.036-.623-1.829-1.987-2.478-.828-.416-1.335-.7-1.335-1.123.01-.387.429-.784,1.364-.784a4.044,4.044,0,0,1,1.764.348l.214.1L7.1.387Z" transform="translate(14.145)" fill="#0742a6"/>
        <path id="path13" d="M6.3,9.1s-.214-1.045-.282-1.365H2.981L2.484,9.1H0L3.517.755A1.169,1.169,0,0,1,4.754,0H6.585L8.5,9.1Z" transform="translate(20.73 0.165)" fill="#0742a6"/>
        <path id="path15" d="M5.845,0,3.526,6.2,3.273,4.946A6.975,6.975,0,0,0,0,1.132L2.124,9.088h2.5L8.348,0h-2.5Z" transform="translate(2.474 0.165)" fill="#0742a6"/>
        <path id="path17" d="M3.848,0H.039L0,.184A7.908,7.908,0,0,1,5.748,4.946L4.919.765A.979.979,0,0,0,3.848,0Z" transform="translate(0 0.165)" fill="#0742a6"/>
      </g>
      <path id="path13-path" d="M0,3.416C.195,2.894.945.871.945.871.935.89,1.14.339,1.257,0l.165.784s.448,2.178.546,2.633Z" transform="translate(31.808 13.658)" fill="#fff"/>
    </g>
    <g id="Groupe_4496" data-name="Groupe 4496" transform="translate(1217.858 4107.418)">
      <g id="Apple_Pay_2" data-name="Apple Pay ">
        <g id="Rectangle_Copy_21-2" data-name="Rectangle Copy 21" fill="#fff" stroke="#fff" stroke-miterlimit="10" stroke-width="1">
          <rect width="44.142" height="31.39" rx="3" stroke="none"/>
          <rect x="0.5" y="0.5" width="43.142" height="30.39" rx="2.5" fill="none"/>
        </g>
      </g>
      <path id="Tracé_1245" data-name="Tracé 1245" d="M-1622.835,864.1h-15.555c-.374,0-.321.04-.323-.332,0-.472.009-.945,0-1.417-.005-.181.044-.228.226-.227q3.529.01,7.057,0h24.217c.339,0,.289-.043.292.3,0,.472-.009.945.005,1.417.006.2-.042.266-.257.265-2.325-.009-4.65-.006-6.975-.006Z" transform="translate(1645.214 -841.668)" fill="#ff414d"/>
      <path id="Tracé_1246" data-name="Tracé 1246" d="M-1307.224,675.231a1.837,1.837,0,0,1,1.725-.77,1.689,1.689,0,0,1,1.548,1.008,2.291,2.291,0,0,1,.975-.842,2.449,2.449,0,0,1,2.576.462,1.946,1.946,0,0,1,.459,1.309c.016,1.2.006,2.4.012,3.594,0,.114-.028.154-.148.152-.493-.007-.987-.009-1.481,0-.146,0-.165-.056-.165-.18,0-.849,0-1.7,0-2.546a3.341,3.341,0,0,0-.061-.776.822.822,0,0,0-.761-.692.885.885,0,0,0-.893.563,2.215,2.215,0,0,0-.141.865c0,.849,0,1.7,0,2.546,0,.164-.031.225-.211.22-.459-.014-.919-.011-1.378,0-.159,0-.209-.036-.208-.2.008-.938,0-1.875,0-2.813a1.7,1.7,0,0,0-.121-.7.754.754,0,0,0-.707-.476.821.821,0,0,0-.818.405,1.758,1.758,0,0,0-.21.888c0,.89-.005,1.78,0,2.67,0,.171-.026.239-.22.232-.466-.017-.932-.01-1.4,0-.134,0-.173-.035-.173-.171q.005-2.608,0-5.216c0-.132.032-.176.17-.173.487.008.974.007,1.46,0,.124,0,.173.03.163.16S-1307.224,675.024-1307.224,675.231Z" transform="translate(1329.085 -661.718)" fill="#00425d"/>
      <path id="Tracé_1247" data-name="Tracé 1247" d="M-1637.485,678.542a1.789,1.789,0,0,1-1.046.771,2.735,2.735,0,0,1-3.111-1.358,3.251,3.251,0,0,1,.617-3.847,2.644,2.644,0,0,1,3.23-.16c.1.082.183.182.309.308,0-.178.006-.317,0-.456-.006-.113.026-.155.147-.154q.751.01,1.5,0c.12,0,.147.038.147.152q0,2.628,0,5.257c0,.115-.03.152-.148.151-.494-.006-.988-.008-1.481,0-.143,0-.174-.052-.166-.178S-1637.485,678.746-1637.485,678.542Zm.108-2.105a1.365,1.365,0,0,0-1.381-1.425,1.393,1.393,0,0,0-1.42,1.376,1.386,1.386,0,0,0,1.419,1.457A1.383,1.383,0,0,0-1637.376,676.436Z" transform="translate(1648.378 -660.783)" fill="#00425d"/>
      <path id="Tracé_1248" data-name="Tracé 1248" d="M-1023.743,678.7a1.717,1.717,0,0,1-1.157.757,2.68,2.68,0,0,1-3-1.483,3.255,3.255,0,0,1,.239-3.316,2.746,2.746,0,0,1,3.4-.782,2.948,2.948,0,0,1,.553.485c0-.193,0-.341,0-.488,0-.086.025-.12.116-.12q.782.005,1.563,0c.079,0,.114.024.106.1,0,.034,0,.068,0,.1,0,1.711,0,3.423.006,5.134,0,.189-.056.223-.228.219-.459-.012-.919-.009-1.378,0-.139,0-.2-.028-.186-.178.013-.134,0-.27,0-.405Zm.144-2.182a1.356,1.356,0,0,0-1.4-1.4,1.392,1.392,0,0,0-1.4,1.4,1.385,1.385,0,0,0,1.422,1.432A1.374,1.374,0,0,0-1023.6,676.516Z" transform="translate(1059.873 -660.886)" fill="#00425d"/>
      <path id="Tracé_1249" data-name="Tracé 1249" d="M-1420.555,596.764c0-1.444,0-2.889,0-4.333,0-.168.038-.221.213-.217q.689.019,1.378,0c.17,0,.2.055.2.209q-.007,3.851,0,7.7c0,.342,0,.685,0,1.027,0,.105-.029.143-.139.141-.5-.005-1-.009-1.5,0-.173,0-.145-.1-.145-.2Q-1420.556,598.93-1420.555,596.764Z" transform="translate(1436.037 -582.87)" fill="#00425d"/>
    </g>
  </g>
</svg>
